<?xml version="1.0" encoding="UTF-8"?>
<svg xmlns="http://www.w3.org/2000/svg" width="350" height="175">
	<rect width="87.5" height="175" fill="#d00"/>
	<rect x="262.5" width="87.5" height="175" fill="#d00"/>
	<path d="m 174.9973,16.40625 -11.93959,22.26885 c -1.3548,2.42025 -3.78219,2.19577 -6.20959,.84398 l -8.64395,-4.476 6.44247,34.20449 c 1.3548,6.24897 -2.99201,6.24897 -5.13718,3.54702 l -15.08537,-16.88785 -2.44908,8.57605 c -.28242,1.12622 -1.52418,2.3091 -3.38712,2.02741 l -19.07562,-4.01069 5.01033,18.21566 c 1.07258,4.05319 1.90922,5.73135 -1.08281,6.80036 l -6.79917,3.19559 32.83744,26.67293 c 1.29973,1.00853 1.9564,2.82345 1.49369,4.46674 l -2.87398,9.43147 c 11.30642,-1.3033 21.43714,-3.26408 32.74929,-4.47167 .99863,-.10661 2.67046,1.54143 2.6636,2.6987 l -1.49808,34.5532 5.49724,0 -.86533,-34.4791 c -.0069,-1.15728 1.5098,-2.87941 2.50843,-2.77281 11.31214,1.20759 21.44288,3.16837 32.7493,4.47167 l -2.87397,-9.43147 c -.46271,-1.64329 .19396,-3.45821 1.49368,-4.46674 l 32.83744,-26.67293 -6.79916,-3.19559 c -2.99203,-1.06901 -2.1554,-2.74717 -1.08282,-6.80036 l 5.01034,-18.21566 -19.07563,4.01069 c -1.86293,.28169 -3.1047,-.90119 -3.38713,-2.02741 l -2.44908,-8.57605 -15.08536,16.88785 c -2.14518,2.70194 -6.49199,2.70194 -5.13719,-3.54702 l 6.44246,-34.20449 -8.64393,4.476 c -2.42746,1.35179 -4.85479,1.57627 -6.2096,-.84398" fill="#d00"/>
</svg>